<svg width="22" height="22" viewBox="0 0 22 22" fill="none" xmlns="http://www.w3.org/2000/svg">
<path d="M13.3196 8.68076L8.68125 13.3191C8.08542 12.7233 7.71875 11.9074 7.71875 10.9999C7.71875 9.18493 9.18542 7.71826 11.0004 7.71826C11.9079 7.71826 12.7237 8.08493 13.3196 8.68076Z" stroke="#30AD4C" stroke-opacity="0.5" stroke-width="1.5" stroke-linecap="round" stroke-linejoin="round"/>
<path d="M16.3349 5.28919C14.7307 4.07919 12.8974 3.41919 10.9999 3.41919C7.76402 3.41919 4.74819 5.32586 2.64902 8.62586C1.82402 9.91836 1.82402 12.0909 2.64902 13.3834C3.37319 14.52 4.21652 15.5009 5.13319 16.2892" stroke="#30AD4C" stroke-opacity="0.5" stroke-width="1.5" stroke-linecap="round" stroke-linejoin="round"/>
<path d="M7.71875 17.9026C8.76375 18.3426 9.87292 18.581 11.0004 18.581C14.2362 18.581 17.2521 16.6743 19.3512 13.3743C20.1762 12.0818 20.1762 9.90929 19.3512 8.61679C19.0487 8.14012 18.7187 7.69095 18.3796 7.26929" stroke="#30AD4C" stroke-opacity="0.5" stroke-width="1.5" stroke-linecap="round" stroke-linejoin="round"/>
<path d="M14.2178 11.6416C13.9795 12.9341 12.9253 13.9883 11.6328 14.2266" stroke="#30AD4C" stroke-opacity="0.5" stroke-width="1.5" stroke-linecap="round" stroke-linejoin="round"/>
<path d="M8.68051 13.3191L1.83301 20.1666" stroke="#30AD4C" stroke-opacity="0.5" stroke-width="1.5" stroke-linecap="round" stroke-linejoin="round"/>
<path d="M20.1668 1.83325L13.3193 8.68075" stroke="#30AD4C" stroke-opacity="0.5" stroke-width="1.5" stroke-linecap="round" stroke-linejoin="round"/>
</svg>
