<svg width="37" height="36" viewBox="0 0 37 36" fill="none" xmlns="http://www.w3.org/2000/svg">
<path d="M33.2083 15.0623H32V15H18.5V21H26.9773C25.7405 24.4928 22.4172 27 18.5 27C13.5297 27 9.5 22.9702 9.5 18C9.5 13.0297 13.5297 9 18.5 9C20.7943 9 22.8815 9.8655 24.4708 11.2792L28.7135 7.0365C26.0345 4.53975 22.451 3 18.5 3C10.2162 3 3.5 9.71625 3.5 18C3.5 26.2838 10.2162 33 18.5 33C26.7838 33 33.5 26.2838 33.5 18C33.5 16.9943 33.3965 16.0125 33.2083 15.0623Z" fill="#FFC107"/>
<path d="M5.22949 11.0182L10.1577 14.6325C11.4912 11.331 14.7207 9 18.5 9C20.7942 9 22.8815 9.8655 24.4707 11.2792L28.7135 7.0365C26.0345 4.53975 22.451 3 18.5 3C12.7385 3 7.74199 6.25275 5.22949 11.0182Z" fill="#FF3D00"/>
<path d="M18.5002 33C22.3747 33 25.8952 31.5173 28.557 29.106L23.9145 25.1775C22.4085 26.3183 20.5365 27 18.5002 27C14.5987 27 11.286 24.5123 10.038 21.0405L5.14648 24.8093C7.62898 29.667 12.6705 33 18.5002 33Z" fill="#4CAF50"/>
<path d="M33.2083 15.0623H32V15H18.5V21H26.9773C26.3833 22.6778 25.304 24.1245 23.912 25.1782C23.9127 25.1775 23.9135 25.1775 23.9142 25.1768L28.5568 29.1052C28.2283 29.4037 33.5 25.5 33.5 18C33.5 16.9943 33.3965 16.0125 33.2083 15.0623Z" fill="#1976D2"/>
</svg>
