<svg width="1151" height="606" viewBox="0 0 1151 606" fill="none" xmlns="http://www.w3.org/2000/svg">
<path d="M1076.61 467.193H1019.28C988.531 467.193 963.759 443.83 964.01 415.204C964.01 414.993 964.01 414.781 964.01 414.569V398.996C964.01 353.882 999.23 317.312 1042.68 317.312C1087.22 317.312 1123.33 279.823 1123.33 233.578C1123.33 187.334 1087.22 149.845 1042.68 149.845H1029.47C986.021 149.845 950.797 113.275 950.797 68.1609C950.801 30.5139 921.406 0 885.148 0H372.207C331.851 0 299.136 33.9673 299.136 75.8647C299.135 79.3929 299.37 82.9178 299.838 86.4189C303.809 116.057 279.404 142.353 247.341 142.353H246.886C209.306 142.353 178.843 171.624 178.843 207.735C178.843 251.007 142.335 286.084 97.3024 286.084H83.5882C37.4258 286.084 0 322.044 0 366.404C0 410.76 37.4258 446.72 83.5882 446.72C128.621 446.72 165.129 481.8 165.129 525.069V540.006C165.129 576.117 195.588 605.388 233.172 605.388H549.789C552.18 605.604 554.6 605.713 557.049 605.715H1076.61C1117.7 605.715 1151 574.706 1151 536.456C1150.98 498.202 1117.68 467.193 1076.61 467.193Z" fill="#FFE8D4"/>
<path d="M352.115 236.318H280.456V258.079H352.115V236.318Z" fill="#F7CC7F"/>
<path d="M396.284 268.436H324.625V290.198H396.284V268.436Z" fill="#F7CC7F"/>
<path d="M247.464 503.271H175.805V525.033H247.464V503.271Z" fill="#FFD6B1"/>
<path d="M867.78 492.39H796.121V514.152H867.78V492.39Z" fill="#F7CC7F"/>
<path d="M820.492 455.58H748.833V477.341H820.492V455.58Z" fill="#F7CC7F"/>
<path d="M1124.15 553.31H1052.5V575.072H1124.15V553.31Z" fill="#FFD6B1"/>
<path d="M814.129 529.197H742.47V550.959H814.129V529.197Z" fill="#F7CC7F"/>
<path d="M1076.86 516.503H1005.2V538.265H1076.86V516.503Z" fill="#FFD6B1"/>
<path d="M305.549 268.436H233.89V290.198H305.549V268.436Z" fill="#F7CC7F"/>
<path d="M359.552 303.107H287.893V324.869H359.552V303.107Z" fill="#F7CC7F"/>
<path d="M1100.51 199.582H1028.85V221.344H1100.51V199.582Z" fill="#FFD6B1"/>
<path d="M826.271 12.4819H767.99V31.9211H826.271V12.4819Z" fill="#FFD6B1"/>
<path d="M570.88 36.3225H512.6V55.7617H570.88V36.3225Z" fill="#FFD6B1"/>
<path d="M533.438 9.19727H475.157V28.6364H533.438V9.19727Z" fill="#FFD6B1"/>
<path d="M790.768 42.0085H732.487V61.4477H790.768V42.0085Z" fill="#FFD6B1"/>
<path d="M1085.62 162.689H1064.66V184.451H1107.98C1102.08 175.938 1094.49 168.552 1085.62 162.689Z" fill="#FFD6B1"/>
<path d="M198.145 466.249H137.447C144.777 472.458 150.87 479.826 155.445 488.011H198.145V466.249Z" fill="#FFD6B1"/>
<path d="M198.144 540.293H165.133C165.157 547.702 166.497 555.055 169.1 562.055H198.144V540.293Z" fill="#FFD6B1"/>
<path d="M239.595 173.976V152.21H210.925C201.746 157.73 194.093 165.185 188.586 173.972L239.595 173.976Z" fill="#F7CC7F"/>
<path d="M198.145 203.768V182.006H184.3C181.216 188.929 179.408 196.286 178.952 203.768H198.145Z" fill="#F7CC7F"/>
</svg>
